<?xml version="1.0" standalone="no"?>
<!DOCTYPE svg PUBLIC "-//W3C//DTD SVG 20010904//EN"
 "http://www.w3.org/TR/2001/REC-SVG-20010904/DTD/svg10.dtd">
<svg version="1.0" xmlns="http://www.w3.org/2000/svg"
 width="271.000000pt" height="272.000000pt" viewBox="0 0 271.000000 272.000000"
 preserveAspectRatio="xMidYMid meet">

<g transform="translate(0.000000,272.000000) scale(0.100000,-0.100000)"
fill="#ffffff" stroke="none">
<path fill="#ffffff" d="M1244 2626 c-71 -22 -435 -236 -490 -288 -28 -26 -64 -74 -80 -105
l-29 -58 -5 -297 c-3 -163 -7 -299 -10 -301 -3 -3 -28 -18 -56 -34 -268 -150
-405 -235 -442 -271 -24 -24 -58 -73 -75 -110 l-32 -67 -3 -263 c-4 -294 2
-332 62 -427 42 -65 77 -92 256 -195 221 -127 247 -141 303 -156 132 -35 197
-15 481 149 120 70 224 127 229 127 6 0 90 -46 186 -102 254 -147 277 -159
334 -174 129 -34 198 -14 457 135 211 121 276 175 319 266 33 71 41 138 41
356 0 389 -23 426 -395 639 l-220 126 -6 290 c-3 177 -10 302 -17 322 -15 45
-64 121 -99 154 -56 52 -419 260 -493 282 -64 19 -159 20 -216 2z m339 -296
c296 -169 276 -139 277 -416 0 -110 1 -203 0 -207 0 -5 -17 1 -37 13 -176 105
-300 171 -344 184 -73 22 -193 21 -262 -3 -30 -11 -126 -60 -213 -110 -86 -50
-159 -91 -161 -91 -1 0 -3 89 -3 198 0 214 8 251 61 298 43 37 393 232 424
236 55 6 95 -10 258 -102z m-93 -657 c103 -57 354 -204 363 -213 5 -4 8 -121
7 -260 -1 -279 -6 -305 -66 -362 -16 -14 -122 -80 -235 -146 l-207 -119 -203
117 c-112 64 -220 132 -240 152 -62 60 -69 99 -69 374 l0 242 211 121 c116 67
225 125 243 131 52 16 125 2 196 -37z m-848 -565 l3 -223 32 -68 c48 -101 111
-157 301 -267 89 -51 159 -97 155 -101 -5 -4 -80 -48 -168 -100 -145 -83 -166
-93 -220 -96 l-60 -4 -188 109 c-104 60 -200 120 -214 133 -51 48 -53 60 -53
319 0 258 2 271 53 318 28 27 326 201 344 202 8 0 12 -60 15 -222z m1604 131
c183 -104 190 -110 215 -164 16 -35 19 -68 19 -265 0 -197 -3 -230 -19 -265
-10 -22 -27 -47 -37 -57 -10 -9 -102 -65 -204 -124 -170 -98 -190 -108 -245
-111 l-60 -4 -169 98 c-93 54 -169 102 -169 107 1 5 72 51 159 101 188 108
241 157 293 264 l36 76 3 218 c2 119 7 217 12 217 4 0 79 -41 166 -91z"/>
</g>
</svg>
